<?xml version="1.0" encoding="UTF-8"?>
<svg id="Layer_2" data-name="Layer 2" xmlns="http://www.w3.org/2000/svg" viewBox="0 0 678.49 275.23">
  <defs>
    <style>
      .cls-1 {
        fill: #caebfb;
      }
    </style>
  </defs>
  <g id="Design">
    <g>
      <path class="cls-1" d="M658.53,0H19.95C8.94,0,0,8.57,0,19.09v129.46c0,10.53,8.94,19.09,19.95,19.09h638.58c11.01,0,19.95-8.57,19.95-19.09V19.09c0-10.53-8.94-19.09-19.95-19.09ZM668.23,148.55c0,5.12-4.34,9.28-9.7,9.28H19.95c-5.35,0-9.69-4.17-9.69-9.28V19.09c0-5.12,4.34-9.28,9.69-9.28h638.58c5.35,0,9.7,4.17,9.7,9.28v129.46Z"/>
      <g>
        <g>
          <path class="cls-1" d="M165.53,72.49v29.3h21.01c4.82,0,9.18-.7,13.08-2.1,3.89-1.4,7.22-3.39,9.98-5.95,2.76-2.57,4.88-5.64,6.36-9.22,1.48-3.58,2.22-7.59,2.22-12.03s-.74-8.44-2.22-12.02c-1.48-3.58-3.6-6.65-6.36-9.22-2.76-2.57-6.09-4.55-9.98-5.95-3.89-1.4-8.25-2.1-13.08-2.1h-34.32v-11.56h35.02c6.61,0,12.65.99,18.1,2.98,5.45,1.98,10.12,4.77,14.01,8.35,3.89,3.58,6.91,7.88,9.05,12.9,2.14,5.02,3.21,10.57,3.21,16.64s-1.07,11.62-3.21,16.64c-2.14,5.02-5.16,9.32-9.05,12.9-3.89,3.58-8.56,6.36-14.01,8.35-5.45,1.99-11.48,2.98-18.1,2.98h-35.02v-40.86h13.31Z"/>
          <path class="cls-1" d="M298.85,114.05c-5.14,0-9.79-.78-13.95-2.33-4.16-1.56-7.73-3.74-10.68-6.54-2.96-2.8-5.23-6.15-6.83-10.04-1.6-3.89-2.39-8.17-2.39-12.84s.8-8.83,2.39-12.73c1.59-3.89,3.79-7.24,6.6-10.04s6.15-5,10.04-6.6c3.89-1.59,8.09-2.39,12.61-2.39s8.77.78,12.55,2.33c3.77,1.56,7.04,3.74,9.81,6.54,2.76,2.8,4.9,6.19,6.42,10.16,1.52,3.97,2.28,8.37,2.28,13.19,0,.55-.02,1.19-.06,1.93-.04.74-.1,1.42-.17,2.04h-49.5c.86,4.9,3.15,8.81,6.89,11.73,3.74,2.92,8.52,4.38,14.36,4.38,7.16,0,12.96-2.37,17.4-7.12l7,8.29c-2.8,3.27-6.3,5.76-10.51,7.47-4.2,1.71-8.95,2.57-14.24,2.57ZM315.43,77.51c-.62-4.83-2.63-8.71-6.01-11.67-3.38-2.96-7.65-4.44-12.78-4.44s-9.28,1.46-12.67,4.38-5.43,6.83-6.13,11.73h37.59Z"/>
          <path class="cls-1" d="M394.23,114.05c-5.14,0-9.79-.78-13.95-2.33-4.16-1.56-7.73-3.74-10.68-6.54-2.96-2.8-5.23-6.15-6.83-10.04-1.6-3.89-2.39-8.17-2.39-12.84s.8-8.83,2.39-12.73c1.59-3.89,3.79-7.24,6.6-10.04s6.15-5,10.04-6.6c3.89-1.59,8.09-2.39,12.61-2.39s8.77.78,12.55,2.33c3.77,1.56,7.04,3.74,9.81,6.54,2.76,2.8,4.9,6.19,6.42,10.16,1.52,3.97,2.28,8.37,2.28,13.19,0,.55-.02,1.19-.06,1.93-.04.74-.1,1.42-.17,2.04h-49.5c.86,4.9,3.15,8.81,6.89,11.73,3.74,2.92,8.52,4.38,14.36,4.38,7.16,0,12.96-2.37,17.4-7.12l7,8.29c-2.8,3.27-6.3,5.76-10.51,7.47-4.2,1.71-8.95,2.57-14.24,2.57ZM410.81,77.51c-.62-4.83-2.63-8.71-6.01-11.67-3.38-2.96-7.65-4.44-12.78-4.44s-9.28,1.46-12.67,4.38-5.43,6.83-6.13,11.73h37.59Z"/>
          <path class="cls-1" d="M474.08,136h-12.84V51.25h12.26v8.52c2.49-3.11,5.56-5.43,9.22-6.95,3.66-1.52,7.63-2.28,11.91-2.28,4.59,0,8.81.76,12.67,2.28,3.85,1.52,7.18,3.66,9.98,6.42,2.8,2.76,5,6.09,6.6,9.98,1.59,3.89,2.39,8.25,2.39,13.08s-.8,9.09-2.39,13.02c-1.6,3.93-3.79,7.28-6.6,10.04-2.8,2.76-6.13,4.9-9.98,6.42-3.85,1.52-8.08,2.28-12.67,2.28-4.05,0-7.84-.72-11.38-2.16-3.54-1.44-6.6-3.64-9.16-6.6v30.7ZM493.58,102.85c2.8,0,5.41-.49,7.82-1.46,2.41-.97,4.5-2.35,6.25-4.15,1.75-1.79,3.13-3.95,4.14-6.48,1.01-2.53,1.52-5.35,1.52-8.46s-.51-5.93-1.52-8.47c-1.01-2.53-2.39-4.69-4.14-6.48-1.75-1.79-3.83-3.17-6.25-4.15-2.41-.97-5.02-1.46-7.82-1.46s-5.41.49-7.82,1.46c-2.41.97-4.49,2.35-6.25,4.15-1.75,1.79-3.13,3.95-4.14,6.48-1.01,2.53-1.52,5.35-1.52,8.47s.51,5.94,1.52,8.46c1.01,2.53,2.39,4.69,4.14,6.48,1.75,1.79,3.83,3.17,6.25,4.15,2.41.97,5.02,1.46,7.82,1.46Z"/>
        </g>
        <path class="cls-1" d="M543.08,65.67c-1.41,0-2.73-.26-3.93-.78-1.21-.52-2.26-1.23-3.16-2.12-.9-.9-1.6-1.95-2.11-3.17-.51-1.22-.76-2.52-.76-3.92s.26-2.7.76-3.92c.51-1.22,1.21-2.27,2.11-3.17.9-.9,1.96-1.6,3.18-2.12,1.23-.52,2.55-.78,3.96-.78s2.73.26,3.95.76c1.22.51,2.27,1.21,3.17,2.09.9.89,1.59,1.93,2.09,3.14s.75,2.52.75,3.93-.26,2.73-.78,3.95c-.52,1.22-1.23,2.28-2.12,3.18-.9.91-1.95,1.62-3.17,2.14-1.22.52-2.53.78-3.95.78ZM543.08,64.25c1.21,0,2.34-.22,3.38-.67,1.05-.44,1.95-1.06,2.72-1.84.76-.78,1.36-1.7,1.8-2.75.43-1.05.65-2.17.65-3.38s-.21-2.33-.64-3.37c-.43-1.04-1.01-1.94-1.77-2.7-.75-.76-1.65-1.36-2.69-1.8-1.04-.44-2.17-.65-3.4-.65s-2.36.22-3.41.67c-1.05.44-1.95,1.05-2.72,1.83-.76.77-1.36,1.68-1.78,2.72-.42,1.04-.64,2.16-.64,3.37s.21,2.33.64,3.37c.43,1.04,1.02,1.94,1.78,2.72.76.77,1.67,1.38,2.7,1.83,1.04.44,2.16.67,3.37.67ZM541.18,61.28h-2.18v-11.21h4.59c1.45,0,2.59.34,3.41,1.03.82.69,1.23,1.63,1.23,2.82,0,.85-.2,1.57-.59,2.15-.4.58-.96,1.03-1.7,1.33l2.52,3.88h-2.18l-2.26-3.48h-2.83v3.48ZM541.15,51.86v4.16h2.29c.85,0,1.51-.18,1.98-.55.47-.37.71-.88.71-1.54s-.24-1.17-.71-1.53c-.47-.36-1.13-.54-1.98-.54h-2.29Z"/>
      </g>
      <g>
        <path class="cls-1" d="M17.01,253.49l2.87-6.05c4.04,3.65,10.94,6.29,17.93,6.29,9.39,0,13.43-3.65,13.43-8.38,0-13.27-32.91-4.89-32.91-25.07,0-8.38,6.52-15.52,20.8-15.52,6.36,0,12.96,1.71,17.46,4.81l-2.56,6.21c-4.73-3.03-10.09-4.42-14.9-4.42-9.24,0-13.19,3.88-13.19,8.62,0,13.27,32.91,4.97,32.91,24.92,0,8.31-6.67,15.45-21.03,15.45-8.31,0-16.46-2.79-20.8-6.83Z"/>
        <path class="cls-1" d="M159.04,218.56l-19.95,45.25c-3.65,8.69-8.38,11.41-14.67,11.41-3.96,0-7.99-1.32-10.56-3.8l3.18-5.59c2.02,1.94,4.58,3.03,7.37,3.03,3.57,0,5.82-1.63,7.84-6.37l1.32-2.87-18.16-41.06h7.76l14.36,32.91,14.2-32.91h7.3Z"/>
        <path class="cls-1" d="M214.6,255.36l3.1-5.9c3.49,2.48,9.08,4.27,14.44,4.27,6.91,0,9.78-2.1,9.78-5.59,0-9.24-26-1.24-26-17.62,0-7.37,6.6-12.34,17.15-12.34,5.35,0,11.41,1.4,14.98,3.73l-3.18,5.9c-3.73-2.41-7.84-3.26-11.88-3.26-6.52,0-9.7,2.41-9.7,5.67,0,9.7,26.08,1.79,26.08,17.77,0,7.45-6.83,12.19-17.77,12.19-6.83,0-13.58-2.1-17-4.81Z"/>
        <path class="cls-1" d="M336.14,257.3c-2.25,1.94-5.67,2.87-9,2.87-8.31,0-13.04-4.58-13.04-12.88v-22.59h-6.99v-6.13h6.99v-9h7.45v9h11.8v6.13h-11.8v22.28c0,4.42,2.33,6.91,6.44,6.91,2.17,0,4.27-.7,5.82-1.94l2.33,5.36Z"/>
        <path class="cls-1" d="M435.09,241.62h-33.38c.93,7.22,6.75,12.03,14.9,12.03,4.81,0,8.85-1.63,11.88-4.97l4.11,4.81c-3.73,4.35-9.39,6.68-16.22,6.68-13.27,0-22.12-8.77-22.12-21.03s8.77-20.96,20.65-20.96,20.34,8.54,20.34,21.19c0,.62-.08,1.55-.16,2.25ZM401.71,236.26h26.39c-.78-6.91-5.98-11.8-13.2-11.8s-12.42,4.81-13.2,11.8Z"/>
        <path class="cls-1" d="M568.19,236.03v23.67h-7.45v-22.82c0-8.07-3.88-12.03-10.63-12.03-7.45,0-12.34,4.73-12.34,13.66v21.19h-7.45v-22.82c0-8.07-3.88-12.03-10.63-12.03-7.45,0-12.34,4.73-12.34,13.66v21.19h-7.45v-41.14h7.14v6.13c2.95-4.19,7.99-6.52,14.2-6.52s11.56,2.48,14.28,7.61c3.11-4.66,8.85-7.61,15.83-7.61,10.01,0,16.84,5.74,16.84,17.85Z"/>
        <path class="cls-1" d="M631.04,255.36l3.11-5.9c3.49,2.48,9.08,4.27,14.44,4.27,6.91,0,9.78-2.1,9.78-5.59,0-9.24-26-1.24-26-17.62,0-7.37,6.6-12.34,17.15-12.34,5.36,0,11.41,1.4,14.98,3.73l-3.18,5.9c-3.73-2.41-7.84-3.26-11.88-3.26-6.52,0-9.7,2.41-9.7,5.67,0,9.7,26.08,1.79,26.08,17.77,0,7.45-6.83,12.19-17.77,12.19-6.83,0-13.58-2.1-17-4.81Z"/>
      </g>
    </g>
  </g>
</svg>