<svg xmlns="http://www.w3.org/2000/svg" width="121.445" height="49.264" viewBox="0 0 121.445 49.264"><defs><style>.a{fill:#07257b;}.b{fill:#fff;}</style></defs><g transform="translate(60.723 24.632)"><g transform="translate(-60.723 -24.632)"><rect class="a" width="121.445" height="30.006" rx="2.696"/><g transform="translate(27.246 5.662)"><path class="b" d="M90.06,25.535V30.78h3.761a6.874,6.874,0,0,0,2.34-.376,5.15,5.15,0,0,0,1.787-1.066,4.651,4.651,0,0,0,1.139-1.651,6.036,6.036,0,0,0,0-4.3,4.654,4.654,0,0,0-1.139-1.651,5.155,5.155,0,0,0-1.787-1.066,6.882,6.882,0,0,0-2.34-.376H87.678V18.221h6.269a9.4,9.4,0,0,1,3.239.533,7.387,7.387,0,0,1,2.508,1.494,6.639,6.639,0,0,1,1.619,2.309,8,8,0,0,1,0,5.956,6.638,6.638,0,0,1-1.619,2.309,7.4,7.4,0,0,1-2.508,1.494,9.4,9.4,0,0,1-3.239.533H87.678V25.535Z" transform="translate(-87.678 -18.221)"/><path class="b" d="M158.7,40.483a7.084,7.084,0,0,1-2.5-.418,5.584,5.584,0,0,1-1.912-1.17,5.114,5.114,0,0,1-1.223-1.8,6.327,6.327,0,0,1,0-4.576,5.3,5.3,0,0,1,2.978-2.978,6.2,6.2,0,0,1,4.5-.011A5.251,5.251,0,0,1,162.3,30.7a5.194,5.194,0,0,1,1.149,1.818,6.564,6.564,0,0,1,.407,2.361c0,.1,0,.213-.011.345s-.017.254-.031.365h-8.86a3.283,3.283,0,0,0,1.233,2.1,4.51,4.51,0,0,0,5.684-.491l1.254,1.484a4.833,4.833,0,0,1-1.881,1.337A6.7,6.7,0,0,1,158.7,40.483Zm2.967-6.541a3.221,3.221,0,0,0-1.076-2.09,3.684,3.684,0,0,0-4.555-.01,3.277,3.277,0,0,0-1.1,2.1Z" transform="translate(-132.451 -25.73)"/><path class="b" d="M213.636,40.483a7.083,7.083,0,0,1-2.5-.418,5.585,5.585,0,0,1-1.912-1.17A5.114,5.114,0,0,1,208,37.1a6.327,6.327,0,0,1,0-4.576,5.3,5.3,0,0,1,2.978-2.978,6.2,6.2,0,0,1,4.5-.011,5.254,5.254,0,0,1,1.755,1.17,5.194,5.194,0,0,1,1.149,1.818,6.564,6.564,0,0,1,.407,2.361c0,.1,0,.213-.011.345s-.017.254-.031.365H209.9a3.281,3.281,0,0,0,1.233,2.1,4.51,4.51,0,0,0,5.684-.491l1.254,1.484a4.833,4.833,0,0,1-1.881,1.337A6.7,6.7,0,0,1,213.636,40.483Zm2.967-6.541a3.221,3.221,0,0,0-1.076-2.09,3.684,3.684,0,0,0-4.555-.01,3.277,3.277,0,0,0-1.1,2.1Z" transform="translate(-170.317 -25.73)"/><path class="b" d="M267.974,44.411h-2.3V29.24h2.194v1.525a4.087,4.087,0,0,1,1.651-1.243,5.5,5.5,0,0,1,2.131-.407,6.13,6.13,0,0,1,2.267.407,5.173,5.173,0,0,1,2.967,2.936,6.578,6.578,0,0,1,0,4.671,5.151,5.151,0,0,1-2.967,2.946,6.13,6.13,0,0,1-2.267.408,5.353,5.353,0,0,1-2.038-.387,4.287,4.287,0,0,1-1.64-1.181Zm3.49-5.934a3.711,3.711,0,0,0,1.4-.261,3.236,3.236,0,0,0,1.118-.742,3.482,3.482,0,0,0,.742-1.159,4.356,4.356,0,0,0,0-3.03,3.49,3.49,0,0,0-.742-1.16,3.24,3.24,0,0,0-1.118-.742,3.881,3.881,0,0,0-2.8,0,3.241,3.241,0,0,0-1.118.742,3.49,3.49,0,0,0-.742,1.16,4.361,4.361,0,0,0,0,3.03,3.482,3.482,0,0,0,.742,1.159,3.237,3.237,0,0,0,1.118.742A3.709,3.709,0,0,0,271.463,38.477Z" transform="translate(-210.362 -25.73)"/><g transform="translate(68.178 2.515)"><path class="b" d="M308.857,29.892a1.764,1.764,0,0,1-.7-.139,1.784,1.784,0,0,1-.565-.38,1.746,1.746,0,0,1-.378-.567,1.869,1.869,0,0,1,0-1.4,1.746,1.746,0,0,1,.378-.567,1.776,1.776,0,0,1,.57-.38,1.884,1.884,0,0,1,1.416,0,1.764,1.764,0,0,1,.567.375,1.692,1.692,0,0,1,.375.562,1.822,1.822,0,0,1,.134.7,1.784,1.784,0,0,1-.139.707,1.812,1.812,0,0,1-.38.57,1.759,1.759,0,0,1-.567.383A1.782,1.782,0,0,1,308.857,29.892Zm0-.253a1.533,1.533,0,0,0,.605-.119,1.473,1.473,0,0,0,.486-.329,1.538,1.538,0,0,0,.322-.491,1.638,1.638,0,0,0,0-1.208,1.477,1.477,0,0,0-.317-.484,1.451,1.451,0,0,0-.481-.322,1.633,1.633,0,0,0-1.218,0,1.476,1.476,0,0,0-.805.813,1.65,1.65,0,0,0,0,1.206,1.478,1.478,0,0,0,.319.486,1.5,1.5,0,0,0,.484.327A1.514,1.514,0,0,0,308.857,29.639Zm-.339-.532h-.39V27.1h.821a.92.92,0,0,1,.611.185.622.622,0,0,1,.22.5.672.672,0,0,1-.106.385.658.658,0,0,1-.3.238l.451.694h-.39l-.405-.623h-.507Zm-.005-1.687v.745h.411a.564.564,0,0,0,.355-.1.33.33,0,0,0,.127-.276.324.324,0,0,0-.127-.274.576.576,0,0,0-.355-.1Z" transform="translate(-307.074 -26.315)"/></g></g><g transform="translate(3.045 36.649)"><path class="a" d="M9.8,126.66l.514-1.084a5.006,5.006,0,0,0,3.209,1.125c1.681,0,2.4-.653,2.4-1.5,0-2.376-5.891-.875-5.891-4.488,0-1.5,1.167-2.779,3.723-2.779a5.722,5.722,0,0,1,3.126.861l-.458,1.112a5.022,5.022,0,0,0-2.668-.792c-1.654,0-2.362.695-2.362,1.542,0,2.376,5.891.889,5.891,4.46,0,1.487-1.195,2.765-3.765,2.765A5.772,5.772,0,0,1,9.8,126.66Z" transform="translate(-9.8 -117.935)"/><g transform="translate(17.336 2.473)"><path class="a" d="M73.672,125.893l-3.571,8.1c-.653,1.556-1.5,2.042-2.626,2.042a2.766,2.766,0,0,1-1.89-.681l.57-1a1.886,1.886,0,0,0,1.32.542c.639,0,1.042-.292,1.4-1.139l.236-.514-3.251-7.35h1.389l2.57,5.891,2.542-5.891Z" transform="translate(-65.586 -125.893)"/></g><g transform="translate(35.367 2.404)"><path class="a" d="M123.61,132.325l.556-1.056a4.731,4.731,0,0,0,2.584.764c1.236,0,1.75-.375,1.75-1,0-1.653-4.654-.222-4.654-3.154,0-1.32,1.181-2.209,3.071-2.209a5.356,5.356,0,0,1,2.681.667l-.57,1.056a3.846,3.846,0,0,0-2.126-.584c-1.167,0-1.737.431-1.737,1.014,0,1.737,4.668.32,4.668,3.182,0,1.334-1.222,2.181-3.182,2.181A5.313,5.313,0,0,1,123.61,132.325Z" transform="translate(-123.61 -125.67)"/></g><g transform="translate(51.925 0.861)"><path class="a" d="M182.09,129.251a2.518,2.518,0,0,1-1.612.514,2.1,2.1,0,0,1-2.334-2.306v-4.043h-1.25v-1.1h1.25v-1.612h1.334v1.612h2.112v1.1h-2.112V127.4a1.085,1.085,0,0,0,1.153,1.236,1.68,1.68,0,0,0,1.042-.347Z" transform="translate(-176.894 -120.707)"/></g><g transform="translate(67.525 2.404)"><path class="a" d="M234.4,129.866h-5.974a2.494,2.494,0,0,0,2.668,2.153,2.749,2.749,0,0,0,2.126-.889l.736.861a4.014,4.014,0,0,1-6.863-2.57,3.606,3.606,0,0,1,3.7-3.751,3.55,3.55,0,0,1,3.64,3.793C234.429,129.574,234.415,129.741,234.4,129.866Zm-5.974-.959h4.724a2.377,2.377,0,0,0-4.724,0Z" transform="translate(-227.093 -125.67)"/></g><g transform="translate(86.431 2.404)"><path class="a" d="M300.159,128.865V133.1h-1.334v-4.085c0-1.445-.695-2.153-1.9-2.153a2.138,2.138,0,0,0-2.209,2.445V133.1h-1.334v-4.085c0-1.445-.695-2.153-1.9-2.153a2.138,2.138,0,0,0-2.209,2.445V133.1h-1.334v-7.364h1.278v1.1a2.985,2.985,0,0,1,2.543-1.167,2.725,2.725,0,0,1,2.556,1.361,3.318,3.318,0,0,1,2.834-1.361C298.936,125.67,300.159,126.7,300.159,128.865Z" transform="translate(-287.933 -125.67)"/></g><g transform="translate(109.907 2.404)"><path class="a" d="M363.478,132.325l.556-1.056a4.731,4.731,0,0,0,2.584.764c1.237,0,1.751-.375,1.751-1,0-1.653-4.654-.222-4.654-3.154,0-1.32,1.181-2.209,3.07-2.209a5.356,5.356,0,0,1,2.682.667l-.57,1.056a3.846,3.846,0,0,0-2.126-.584c-1.167,0-1.737.431-1.737,1.014,0,1.737,4.668.32,4.668,3.182,0,1.334-1.223,2.181-3.181,2.181A5.314,5.314,0,0,1,363.478,132.325Z" transform="translate(-363.478 -125.67)"/></g></g></g></g></svg>