<?xml version="1.0" encoding="UTF-8"?>
<svg id="Layer_2" data-name="Layer 2" xmlns="http://www.w3.org/2000/svg" viewBox="0 0 608 246.63">
  <defs>
    <style>
      .cls-1 {
        fill: #fff;
      }

      .cls-2 {
        fill: #2e308b;
      }
    </style>
  </defs>
  <g id="Design">
    <g>
      <path class="cls-2" d="M13.5,0h581c7.45,0,13.5,6.05,13.5,13.5v123.22c0,7.45-6.05,13.5-13.5,13.5H13.5c-7.45,0-13.5-6.05-13.5-13.5V13.5C0,6.05,6.05,0,13.5,0Z"/>
      <g>
        <g>
          <path class="cls-1" d="M148.33,64.96v26.26h18.83c4.32,0,8.23-.63,11.72-1.88,3.49-1.26,6.47-3.03,8.94-5.34,2.47-2.3,4.38-5.06,5.7-8.26,1.32-3.21,1.99-6.8,1.99-10.78s-.66-7.57-1.99-10.77c-1.33-3.21-3.23-5.96-5.7-8.26-2.48-2.3-5.46-4.08-8.94-5.34-3.49-1.25-7.39-1.88-11.72-1.88h-30.76v-10.36h31.38c5.93,0,11.33.89,16.22,2.67,4.88,1.78,9.07,4.27,12.55,7.48,3.49,3.21,6.19,7.06,8.11,11.56,1.92,4.5,2.88,9.47,2.88,14.91s-.96,10.41-2.88,14.91c-1.92,4.5-4.62,8.35-8.11,11.56-3.49,3.21-7.67,5.7-12.55,7.48-4.88,1.78-10.29,2.67-16.22,2.67h-31.38v-36.62h11.93Z"/>
          <path class="cls-1" d="M267.8,102.21c-4.6,0-8.77-.7-12.5-2.09-3.73-1.39-6.92-3.35-9.57-5.86-2.65-2.51-4.69-5.51-6.12-9-1.43-3.49-2.14-7.32-2.14-11.51s.71-7.92,2.14-11.4c1.43-3.49,3.4-6.49,5.91-9s5.51-4.48,9-5.91c3.49-1.43,7.25-2.14,11.3-2.14s7.86.7,11.25,2.09c3.38,1.4,6.31,3.35,8.79,5.86,2.47,2.51,4.39,5.55,5.75,9.1,1.36,3.56,2.04,7.5,2.04,11.82,0,.49-.02,1.06-.05,1.73-.04.66-.09,1.27-.16,1.83h-44.36c.77,4.39,2.83,7.9,6.17,10.51,3.35,2.62,7.64,3.92,12.87,3.92,6.42,0,11.61-2.13,15.59-6.38l6.28,7.43c-2.51,2.93-5.65,5.16-9.42,6.7-3.77,1.54-8.02,2.3-12.76,2.3ZM282.66,69.46c-.56-4.32-2.35-7.81-5.39-10.46-3.03-2.65-6.85-3.97-11.46-3.97s-8.32,1.31-11.35,3.92-4.86,6.12-5.49,10.51h33.69Z"/>
          <path class="cls-1" d="M353.27,102.21c-4.6,0-8.77-.7-12.5-2.09-3.73-1.39-6.92-3.35-9.57-5.86-2.65-2.51-4.69-5.51-6.12-9-1.43-3.49-2.14-7.32-2.14-11.51s.71-7.92,2.14-11.4c1.43-3.49,3.4-6.49,5.91-9s5.51-4.48,9-5.91c3.49-1.43,7.25-2.14,11.3-2.14s7.86.7,11.25,2.09c3.38,1.4,6.31,3.35,8.79,5.86,2.47,2.51,4.39,5.55,5.75,9.1,1.36,3.56,2.04,7.5,2.04,11.82,0,.49-.02,1.06-.05,1.73-.04.66-.09,1.27-.16,1.83h-44.36c.77,4.39,2.83,7.9,6.17,10.51,3.35,2.62,7.64,3.92,12.87,3.92,6.42,0,11.61-2.13,15.59-6.38l6.28,7.43c-2.51,2.93-5.65,5.16-9.42,6.7-3.77,1.54-8.02,2.3-12.76,2.3ZM368.13,69.46c-.56-4.32-2.35-7.81-5.39-10.46-3.03-2.65-6.85-3.97-11.46-3.97s-8.32,1.31-11.35,3.92-4.86,6.12-5.49,10.51h33.69Z"/>
          <path class="cls-1" d="M424.83,121.87h-11.51V45.92h10.99v7.64c2.23-2.79,4.99-4.86,8.26-6.22,3.28-1.36,6.83-2.04,10.67-2.04,4.11,0,7.9.68,11.35,2.04,3.45,1.36,6.43,3.28,8.94,5.75,2.51,2.48,4.48,5.46,5.91,8.94,1.43,3.49,2.14,7.39,2.14,11.72s-.72,8.14-2.14,11.66c-1.43,3.52-3.4,6.52-5.91,9-2.51,2.48-5.49,4.39-8.94,5.75-3.45,1.36-7.24,2.04-11.35,2.04-3.63,0-7.03-.64-10.2-1.94-3.17-1.29-5.91-3.26-8.21-5.91v27.51ZM442.3,92.16c2.51,0,4.85-.44,7.01-1.31,2.16-.87,4.03-2.11,5.6-3.71,1.57-1.6,2.81-3.54,3.71-5.81.91-2.27,1.36-4.79,1.36-7.58s-.46-5.32-1.36-7.59c-.91-2.27-2.14-4.2-3.71-5.81-1.57-1.6-3.44-2.84-5.6-3.71-2.16-.87-4.5-1.31-7.01-1.31s-4.85.44-7.01,1.31c-2.16.87-4.03,2.11-5.6,3.71-1.57,1.6-2.81,3.54-3.71,5.81-.91,2.27-1.36,4.8-1.36,7.59s.45,5.32,1.36,7.58c.91,2.27,2.15,4.2,3.71,5.81,1.57,1.61,3.43,2.84,5.6,3.71,2.16.87,4.5,1.31,7.01,1.31Z"/>
        </g>
        <path class="cls-1" d="M486.66,58.85c-1.27,0-2.44-.23-3.53-.7-1.08-.47-2.03-1.1-2.83-1.9-.8-.8-1.43-1.75-1.89-2.84-.46-1.09-.68-2.26-.68-3.51s.23-2.42.68-3.51c.46-1.09,1.09-2.04,1.89-2.84.8-.8,1.75-1.44,2.85-1.9,1.1-.47,2.28-.7,3.55-.7s2.45.23,3.54.69c1.09.46,2.04,1.08,2.84,1.88.8.79,1.43,1.73,1.88,2.82s.67,2.26.67,3.53-.23,2.45-.7,3.54c-.47,1.09-1.1,2.04-1.9,2.85-.8.81-1.75,1.45-2.84,1.91-1.09.47-2.27.7-3.54.7ZM486.66,57.58c1.08,0,2.09-.2,3.03-.6.94-.4,1.75-.95,2.43-1.65.68-.7,1.22-1.52,1.61-2.46.39-.94.58-1.95.58-3.03s-.19-2.09-.57-3.02c-.38-.93-.91-1.74-1.59-2.42-.68-.69-1.48-1.22-2.41-1.61-.93-.39-1.95-.58-3.04-.58s-2.12.2-3.06.6c-.94.4-1.75.94-2.43,1.64-.68.69-1.22,1.51-1.6,2.44-.38.93-.57,1.94-.57,3.02s.19,2.09.57,3.02c.38.93.91,1.74,1.6,2.44.69.69,1.49,1.24,2.42,1.64.93.4,1.94.6,3.02.6ZM484.96,54.92h-1.95v-10.04h4.11c1.3,0,2.32.31,3.06.93.74.62,1.1,1.46,1.1,2.52,0,.76-.18,1.4-.53,1.93-.35.52-.86.92-1.52,1.19l2.26,3.47h-1.95l-2.03-3.12h-2.54v3.12ZM484.93,46.47v3.73h2.05c.76,0,1.35-.16,1.78-.49.42-.33.63-.79.63-1.38s-.21-1.05-.63-1.37c-.42-.32-1.01-.48-1.78-.48h-2.05Z"/>
      </g>
      <g>
        <path class="cls-1" d="M15.25,227.16l2.57-5.43c3.62,3.27,9.81,5.63,16.07,5.63,8.42,0,12.03-3.27,12.03-7.51,0-11.89-29.49-4.38-29.49-22.47,0-7.51,5.84-13.91,18.64-13.91,5.7,0,11.62,1.53,15.65,4.31l-2.3,5.56c-4.24-2.71-9.04-3.96-13.35-3.96-8.28,0-11.82,3.48-11.82,7.72,0,11.89,29.49,4.45,29.49,22.33,0,7.44-5.98,13.84-18.85,13.84-7.44,0-14.75-2.5-18.64-6.12Z"/>
        <path class="cls-1" d="M142.52,195.86l-17.88,40.55c-3.27,7.79-7.51,10.22-13.15,10.22-3.55,0-7.16-1.18-9.46-3.41l2.85-5.01c1.81,1.74,4.1,2.71,6.61,2.71,3.2,0,5.22-1.46,7.03-5.7l1.18-2.57-16.28-36.79h6.96l12.87,29.49,12.73-29.49h6.54Z"/>
        <path class="cls-1" d="M192.31,228.83l2.78-5.29c3.13,2.23,8.14,3.83,12.94,3.83,6.19,0,8.76-1.88,8.76-5.01,0-8.28-23.3-1.11-23.3-15.79,0-6.61,5.91-11.06,15.37-11.06,4.8,0,10.22,1.25,13.42,3.34l-2.85,5.29c-3.34-2.16-7.03-2.92-10.64-2.92-5.84,0-8.69,2.16-8.69,5.08,0,8.69,23.37,1.6,23.37,15.93,0,6.68-6.12,10.92-15.93,10.92-6.12,0-12.17-1.88-15.23-4.31Z"/>
        <path class="cls-1" d="M301.22,230.57c-2.02,1.74-5.08,2.57-8.07,2.57-7.44,0-11.68-4.1-11.68-11.55v-20.24h-6.26v-5.49h6.26v-8.07h6.68v8.07h10.57v5.49h-10.57v19.96c0,3.96,2.09,6.19,5.77,6.19,1.95,0,3.82-.63,5.22-1.74l2.09,4.8Z"/>
        <path class="cls-1" d="M389.89,216.52h-29.91c.83,6.47,6.05,10.78,13.35,10.78,4.31,0,7.93-1.46,10.64-4.45l3.69,4.31c-3.34,3.9-8.42,5.98-14.54,5.98-11.89,0-19.82-7.86-19.82-18.85s7.86-18.78,18.5-18.78,18.22,7.65,18.22,18.99c0,.56-.07,1.39-.14,2.02ZM359.98,211.72h23.65c-.7-6.19-5.36-10.57-11.82-10.57s-11.13,4.31-11.82,10.57Z"/>
        <path class="cls-1" d="M509.16,211.51v21.21h-6.68v-20.45c0-7.23-3.48-10.78-9.53-10.78-6.68,0-11.06,4.24-11.06,12.24v18.99h-6.68v-20.45c0-7.23-3.48-10.78-9.53-10.78-6.68,0-11.06,4.24-11.06,12.24v18.99h-6.68v-36.86h6.4v5.49c2.64-3.76,7.16-5.84,12.73-5.84s10.36,2.23,12.8,6.82c2.78-4.17,7.93-6.82,14.19-6.82,8.97,0,15.09,5.15,15.09,16Z"/>
        <path class="cls-1" d="M565.48,228.83l2.78-5.29c3.13,2.23,8.14,3.83,12.94,3.83,6.19,0,8.76-1.88,8.76-5.01,0-8.28-23.3-1.11-23.3-15.79,0-6.61,5.91-11.06,15.37-11.06,4.8,0,10.22,1.25,13.42,3.34l-2.85,5.29c-3.34-2.16-7.03-2.92-10.64-2.92-5.84,0-8.69,2.16-8.69,5.08,0,8.69,23.37,1.6,23.37,15.93,0,6.68-6.12,10.92-15.93,10.92-6.12,0-12.17-1.88-15.23-4.31Z"/>
      </g>
    </g>
  </g>
</svg>