<svg width="601" height="236" viewBox="0 0 601 236" fill="none" xmlns="http://www.w3.org/2000/svg">
<path d="M6.62898 215.779L9.24524 210.264C12.9215 213.586 19.2125 215.991 25.5757 215.991C34.1312 215.991 37.8075 212.668 37.8075 208.354C37.8075 196.265 7.83034 203.9 7.83034 185.519C7.83034 177.884 13.7695 171.379 26.7786 171.379C32.575 171.379 38.5848 172.934 42.6851 175.762L40.3531 181.419C36.0408 178.661 31.1616 177.389 26.7786 177.389C18.3645 177.389 14.7589 180.922 14.7589 185.236C14.7589 197.325 44.736 189.761 44.736 207.93C44.736 215.495 38.6555 221.999 25.5757 221.999C18.0112 221.999 10.5879 219.455 6.62898 215.779Z" fill="white"/>
<path d="M135.999 183.963L117.828 225.181C114.505 233.1 110.193 235.573 104.468 235.573C100.86 235.573 97.1841 234.372 94.8521 232.109L97.7494 227.02C99.5883 228.786 101.922 229.777 104.468 229.777C107.718 229.777 109.769 228.292 111.607 223.979L112.809 221.363L96.2654 183.963H103.335L116.415 213.94L129.353 183.963H135.999Z" fill="white"/>
<path d="M186.61 217.475L189.438 212.102C192.62 214.364 197.71 215.991 202.589 215.991C208.881 215.991 211.496 214.081 211.496 210.9C211.496 202.487 187.811 209.769 187.811 194.852C187.811 188.135 193.821 183.609 203.437 183.609C208.316 183.609 213.83 184.881 217.082 187.003L214.183 192.377C210.789 190.185 207.042 189.407 203.366 189.407C197.427 189.407 194.53 191.6 194.53 194.568C194.53 203.406 218.283 196.194 218.283 210.758C218.283 217.545 212.063 221.858 202.094 221.858C195.872 221.858 189.721 219.95 186.61 217.475Z" fill="white"/>
<path d="M297.316 219.243C295.267 221.01 292.156 221.858 289.116 221.858C281.551 221.858 277.237 217.687 277.237 210.122V189.549H270.874V183.963H277.237V175.762H284.025V183.963H294.772V189.549H284.025V209.84C284.025 213.869 286.146 216.132 289.893 216.132C291.873 216.132 293.781 215.495 295.195 214.364L297.316 219.243Z" fill="white"/>
<path d="M387.451 204.96H357.049C357.897 211.536 363.201 215.92 370.624 215.92C375.007 215.92 378.683 214.435 381.441 211.394L385.188 215.779C381.794 219.738 376.634 221.858 370.412 221.858C358.321 221.858 350.262 213.869 350.262 202.699C350.262 191.6 358.251 183.609 369.068 183.609C379.884 183.609 387.592 191.386 387.592 202.911C387.592 203.476 387.521 204.324 387.451 204.96ZM357.049 200.083H381.087C380.381 193.79 375.643 189.337 369.068 189.337C362.563 189.337 357.756 193.72 357.049 200.083Z" fill="white"/>
<path d="M508.691 199.871V221.434H501.904V200.648C501.904 193.296 498.367 189.69 492.218 189.69C485.43 189.69 480.977 194.002 480.977 202.132V221.434H474.19V200.648C474.19 193.296 470.653 189.69 464.503 189.69C457.716 189.69 453.263 194.002 453.263 202.132V221.434H446.475V183.963H452.978V189.549C455.665 185.731 460.26 183.609 465.917 183.609C471.644 183.609 476.451 185.872 478.926 190.538C481.754 186.296 486.985 183.609 493.348 183.609C502.469 183.609 508.691 188.842 508.691 199.871Z" fill="white"/>
<path d="M565.943 217.475L568.771 212.102C571.953 214.364 577.042 215.991 581.922 215.991C588.214 215.991 590.829 214.081 590.829 210.9C590.829 202.487 567.144 209.769 567.144 194.852C567.144 188.135 573.154 183.609 582.77 183.609C587.649 183.609 593.162 184.881 596.415 187.003L593.516 192.377C590.122 190.185 586.375 189.407 582.699 189.407C576.76 189.407 573.862 191.6 573.862 194.568C573.862 203.406 597.616 196.194 597.616 210.758C597.616 217.545 591.396 221.858 581.427 221.858C575.205 221.858 569.054 219.95 565.943 217.475Z" fill="white"/>
<path d="M146.474 64.3996V90.3302H165.069C169.338 90.3302 173.194 89.7111 176.638 88.4714C180.081 87.2316 183.026 85.4756 185.472 83.202C187.914 80.9298 189.793 78.2091 191.102 75.0413C192.409 71.8736 193.064 68.3263 193.064 64.3996C193.064 60.476 192.409 56.9288 191.102 53.7595C189.793 50.5932 187.914 47.871 185.472 45.5988C183.026 43.3252 180.081 41.5707 176.638 40.3294C173.194 39.0912 169.338 38.4706 165.069 38.4706H134.697V28.2437H165.688C171.541 28.2437 176.879 29.1209 181.7 30.8783C186.521 32.6328 190.654 35.0969 194.098 38.2647C197.539 41.4325 200.208 45.2378 202.103 49.6791C203.997 54.122 204.944 59.0289 204.944 64.3996C204.944 69.772 203.997 74.6803 202.103 79.1217C200.208 83.5645 197.539 87.3699 194.098 90.5376C190.654 93.7054 186.521 96.1665 181.7 97.924C176.879 99.6799 171.541 100.557 165.688 100.557H134.697V64.3996H146.474Z" fill="white"/>
<path d="M264.449 101.178C259.904 101.178 255.788 100.49 252.104 99.1115C248.419 97.7335 245.268 95.8055 242.651 93.326C240.034 90.8465 238.02 87.8861 236.608 84.4418C235.196 80.999 234.491 77.2106 234.491 73.0796C234.491 69.0146 235.196 65.263 236.608 61.8187C238.02 58.3744 239.966 55.414 242.444 52.933C244.924 50.4534 247.884 48.5085 251.33 47.0967C254.773 45.6864 258.49 44.9797 262.486 44.9797C266.548 44.9797 270.25 45.668 273.592 47.0445C276.932 48.424 279.824 50.3521 282.269 52.83C284.713 55.3096 286.609 58.3053 287.951 61.8187C289.294 65.3306 289.965 69.222 289.965 73.4913C289.965 73.9752 289.948 74.5421 289.913 75.1965C289.878 75.851 289.827 76.4532 289.759 77.0032H245.957C246.715 81.3431 248.747 84.8028 252.052 87.3852C255.358 89.9693 259.593 91.2612 264.758 91.2612C271.094 91.2612 276.227 89.1596 280.152 84.958L286.351 92.2921C283.871 95.1849 280.771 97.3909 277.051 98.9042C273.334 100.42 269.132 101.178 264.449 101.178ZM279.119 68.8425C278.566 64.5732 276.793 61.1305 273.798 58.5112C270.802 55.8949 267.032 54.5875 262.486 54.5875C258.008 54.5875 254.273 55.878 251.278 58.4605C248.282 61.0429 246.474 64.5041 245.855 68.8425H279.119Z" fill="white"/>
<path d="M348.85 101.178C344.305 101.178 340.187 100.49 336.505 99.1115C332.819 97.7335 329.669 95.8055 327.052 93.326C324.435 90.8465 322.42 87.8861 321.009 84.4418C319.597 80.999 318.892 77.2106 318.892 73.0796C318.892 69.0146 319.597 65.263 321.009 61.8187C322.42 58.3744 324.367 55.414 326.845 52.933C329.324 50.4534 332.285 48.5085 335.731 47.0967C339.173 45.6864 342.891 44.9797 346.887 44.9797C350.949 44.9797 354.651 45.668 357.993 47.0445C361.333 48.424 364.224 50.3521 366.67 52.83C369.114 55.3096 371.009 58.3053 372.352 61.8187C373.695 65.3306 374.366 69.222 374.366 73.4913C374.366 73.9752 374.349 74.5421 374.314 75.1965C374.279 75.851 374.228 76.4532 374.16 77.0032H330.358C331.116 81.3431 333.147 84.8028 336.453 87.3852C339.759 89.9693 343.994 91.2612 349.159 91.2612C355.495 91.2612 360.627 89.1596 364.553 84.958L370.751 92.2921C368.272 95.1849 365.172 97.3909 361.452 98.9042C357.735 100.42 353.533 101.178 348.85 101.178ZM363.52 68.8425C362.967 64.5732 361.194 61.1305 358.199 58.5112C355.203 55.8949 351.433 54.5875 346.887 54.5875C342.409 54.5875 338.674 55.878 335.678 58.4605C332.683 61.0429 330.875 64.5041 330.255 68.8425H363.52Z" fill="white"/>
<path d="M419.511 120.599H408.147V45.5989H418.995V53.1404C421.198 50.3858 423.918 48.3365 427.157 46.9938C430.392 45.6496 433.904 44.9797 437.694 44.9797C441.756 44.9797 445.492 45.6496 448.903 46.9938C452.312 48.3365 455.255 50.2322 457.735 52.6749C460.214 55.1206 462.159 58.0641 463.571 61.5069C464.983 64.9527 465.689 68.8087 465.689 73.0796C465.689 77.2797 464.983 81.1204 463.571 84.5969C462.159 88.075 460.214 91.037 457.735 93.4812C455.255 95.9269 452.312 97.8196 448.903 99.1623C445.492 100.506 441.756 101.178 437.694 101.178C434.111 101.178 430.755 100.542 427.621 99.2667C424.487 97.9916 421.785 96.0482 419.511 93.4305V120.599ZM436.763 91.2612C439.244 91.2612 441.55 90.8296 443.686 89.9693C445.819 89.1074 447.663 87.8861 449.211 86.3007C450.762 84.7183 451.983 82.8072 452.879 80.5688C453.774 78.332 454.223 75.8341 454.223 73.0796C454.223 70.325 453.774 67.8286 452.879 65.5887C451.983 63.3519 450.762 61.4393 449.211 59.8554C447.663 58.2715 445.819 57.0502 443.686 56.1883C441.55 55.328 439.244 54.8963 436.763 54.8963C434.284 54.8963 431.976 55.328 429.842 56.1883C427.707 57.0502 425.865 58.2715 424.315 59.8554C422.766 61.4393 421.542 63.3519 420.648 65.5887C419.752 67.8286 419.305 70.325 419.305 73.0796C419.305 75.8341 419.752 78.332 420.648 80.5688C421.542 82.8072 422.766 84.7183 424.315 86.3007C425.865 87.8861 427.707 89.1074 429.842 89.9693C431.976 90.8296 434.284 91.2612 436.763 91.2612Z" fill="white"/>
<path d="M480.564 58.3606C479.311 58.3606 478.15 58.1317 477.082 57.6724C476.013 57.213 475.082 56.5878 474.29 55.7935C473.495 55.0008 472.875 54.0652 472.423 52.9883C471.973 51.9114 471.747 50.7561 471.747 49.521C471.747 48.2843 471.973 47.1275 472.423 46.0505C472.875 44.9736 473.495 44.038 474.29 43.2453C475.082 42.4526 476.022 41.8273 477.107 41.368C478.192 40.9087 479.361 40.6782 480.614 40.6782C481.866 40.6782 483.031 40.9041 484.108 41.3542C485.185 41.8043 486.12 42.4234 486.913 43.2084C487.706 43.9919 488.323 44.9198 488.766 45.9875C489.208 47.0568 489.429 48.2167 489.429 49.4687C489.429 50.7208 489.2 51.8868 488.741 52.9637C488.282 54.0407 487.655 54.9808 486.862 55.7812C486.07 56.5832 485.134 57.213 484.057 57.6724C482.98 58.1317 481.816 58.3606 480.564 58.3606ZM480.564 57.1086C481.631 57.1086 482.63 56.9135 483.556 56.5202C484.483 56.1284 485.285 55.5846 485.96 54.8917C486.636 54.2004 487.166 53.3893 487.551 52.4629C487.935 51.5365 488.128 50.538 488.128 49.4687C488.128 48.401 487.939 47.4086 487.564 46.4899C487.188 45.5712 486.666 44.7724 485.999 44.0979C485.331 43.4205 484.538 42.8904 483.619 42.5079C482.701 42.1223 481.699 41.9303 480.614 41.9303C479.528 41.9303 478.522 42.1269 477.595 42.5187C476.669 42.9119 475.867 43.4496 475.191 44.1348C474.515 44.82 473.988 45.6204 473.614 46.5391C473.237 47.4578 473.05 48.4502 473.05 49.521C473.05 50.5887 473.237 51.5826 473.614 52.4998C473.988 53.4185 474.515 54.2204 475.191 54.904C475.867 55.5892 476.665 56.1284 477.583 56.5202C478.5 56.9135 479.494 57.1086 480.564 57.1086ZM478.886 54.4785H476.956V44.5604H481.014C482.3 44.5604 483.306 44.8645 484.032 45.476C484.759 46.0843 485.122 46.9139 485.122 47.9678C485.122 48.7175 484.947 49.352 484.596 49.8712C484.246 50.3874 483.744 50.7807 483.092 51.048L485.321 54.4785H483.393L481.39 51.3983H481.014H478.886V54.4785ZM478.86 46.1381V49.819H480.889C481.641 49.819 482.224 49.6577 482.642 49.332C483.06 49.0063 483.269 48.5516 483.269 47.9678C483.269 47.3825 483.06 46.9323 482.642 46.6143C482.224 46.2979 481.641 46.1381 480.889 46.1381H478.86Z" fill="white"/>
<path d="M0 13.5791C0 6.21843 5.96698 0.251465 13.3276 0.251465H587.055C594.417 0.251465 600.385 6.21955 600.385 13.5816V135.262C600.385 142.624 594.417 148.592 587.055 148.592H13.3301C5.96808 148.592 0 142.624 0 135.262V13.5791Z" fill="#232396"/>
<g filter="url(#filter0_d_5_27686)">
<path d="M156.63 97.5732H132.616V19.7551H157.694C165.243 19.7551 171.703 21.3129 177.073 24.4287C182.443 27.5191 186.559 31.9648 189.422 37.7657C192.284 43.5413 193.716 50.4568 193.716 58.5122C193.716 66.6182 192.272 73.597 189.384 79.4486C186.496 85.2748 182.291 89.7585 176.769 92.8996C171.247 96.0154 164.534 97.5732 156.63 97.5732ZM142.039 89.2139H156.022C162.457 89.2139 167.789 87.9726 172.019 85.4901C176.25 83.0077 179.403 79.4739 181.481 74.8889C183.558 70.3039 184.596 64.845 184.596 58.5122C184.596 52.23 183.57 46.8217 181.519 42.2874C179.467 37.7277 176.402 34.232 172.323 31.8002C168.245 29.343 163.166 28.1144 157.086 28.1144H142.039V89.2139ZM250.967 98.7892C245.343 98.7892 240.492 97.5479 236.414 95.0654C232.361 92.5576 229.232 89.0619 227.028 84.5782C224.85 80.0692 223.761 74.8256 223.761 68.8474C223.761 62.8692 224.85 57.6002 227.028 53.0406C229.232 48.4556 232.297 44.8838 236.224 42.3254C240.175 39.7416 244.786 38.4497 250.055 38.4497C253.095 38.4497 256.096 38.9563 259.06 39.9695C262.024 40.9828 264.722 42.6293 267.153 44.9092C269.585 47.1637 271.523 50.1528 272.967 53.8765C274.411 57.6002 275.133 62.1852 275.133 67.6315V71.4312H230.144V63.6798H266.014C266.014 60.3867 265.355 57.4482 264.038 54.8644C262.746 52.2806 260.897 50.2414 258.49 48.7469C256.109 47.2523 253.297 46.5051 250.055 46.5051C246.483 46.5051 243.393 47.3917 240.783 49.1649C238.2 50.9127 236.211 53.1926 234.818 56.0043C233.425 58.8161 232.728 61.8306 232.728 65.0477V70.2153C232.728 74.623 233.488 78.3593 235.008 81.4244C236.553 84.4642 238.694 86.782 241.429 88.3779C244.165 89.9485 247.344 90.7338 250.967 90.7338C253.323 90.7338 255.45 90.4044 257.35 89.7458C259.275 89.0619 260.935 88.0486 262.328 86.7061C263.721 85.3382 264.798 83.6409 265.558 81.6144L274.221 84.0463C273.309 86.9847 271.776 89.5685 269.623 91.7977C267.47 94.0015 264.81 95.724 261.644 96.9653C258.477 98.1812 254.918 98.7892 250.967 98.7892ZM331.434 98.7892C325.81 98.7892 320.959 97.5479 316.881 95.0654C312.828 92.5576 309.7 89.0619 307.496 84.5782C305.317 80.0692 304.228 74.8256 304.228 68.8474C304.228 62.8692 305.317 57.6002 307.496 53.0406C309.7 48.4556 312.765 44.8838 316.691 42.3254C320.643 39.7416 325.253 38.4497 330.522 38.4497C333.562 38.4497 336.564 38.9563 339.527 39.9695C342.491 40.9828 345.189 42.6293 347.621 44.9092C350.053 47.1637 351.99 50.1528 353.434 53.8765C354.878 57.6002 355.6 62.1852 355.6 67.6315V71.4312H310.612V63.6798H346.481C346.481 60.3867 345.822 57.4482 344.505 54.8644C343.213 52.2806 341.364 50.2414 338.957 48.7469C336.576 47.2523 333.765 46.5051 330.522 46.5051C326.95 46.5051 323.86 47.3917 321.251 49.1649C318.667 50.9127 316.678 53.1926 315.285 56.0043C313.892 58.8161 313.195 61.8306 313.195 65.0477V70.2153C313.195 74.623 313.955 78.3593 315.475 81.4244C317.02 84.4642 319.161 86.782 321.897 88.3779C324.633 89.9485 327.812 90.7338 331.434 90.7338C333.79 90.7338 335.918 90.4044 337.818 89.7458C339.743 89.0619 341.402 88.0486 342.795 86.7061C344.188 85.3382 345.265 83.6409 346.025 81.6144L354.688 84.0463C353.776 86.9847 352.244 89.5685 350.091 91.7977C347.937 94.0015 345.278 95.724 342.111 96.9653C338.945 98.1812 335.386 98.7892 331.434 98.7892ZM387.431 119.46V39.2096H396.095V48.4809H397.158C397.817 47.4677 398.729 46.1757 399.894 44.6052C401.085 43.0093 402.782 41.5908 404.986 40.3495C407.215 39.0829 410.229 38.4497 414.029 38.4497C418.944 38.4497 423.275 39.6782 427.024 42.1354C430.773 44.5925 433.699 48.0756 435.802 52.5846C437.904 57.0936 438.955 62.4132 438.955 68.5434C438.955 74.7243 437.904 80.0819 435.802 84.6162C433.699 89.1252 430.786 92.6209 427.062 95.1034C423.339 97.5606 419.045 98.7892 414.181 98.7892C410.432 98.7892 407.43 98.1685 405.176 96.9273C402.921 95.6607 401.186 94.2295 399.97 92.6336C398.754 91.0124 397.817 89.6698 397.158 88.6059H396.399V119.46H387.431ZM396.247 68.3914C396.247 72.7991 396.892 76.6875 398.184 80.0566C399.476 83.4003 401.363 86.0221 403.846 87.922C406.328 89.7965 409.368 90.7338 412.965 90.7338C416.714 90.7338 419.843 89.7458 422.351 87.77C424.884 85.7688 426.784 83.0837 428.05 79.7146C429.342 76.3202 429.988 72.5458 429.988 68.3914C429.988 64.2877 429.355 60.5893 428.088 57.2963C426.847 53.9778 424.96 51.356 422.427 49.4308C419.919 47.4803 416.765 46.5051 412.965 46.5051C409.318 46.5051 406.252 47.4297 403.77 49.2789C401.288 51.1027 399.413 53.6612 398.146 56.9543C396.88 60.222 396.247 64.0344 396.247 68.3914Z" fill="white"/>
</g>
<defs>
<filter id="filter0_d_5_27686" x="128.616" y="11.7551" width="330.339" height="123.705" filterUnits="userSpaceOnUse" color-interpolation-filters="sRGB">
<feFlood flood-opacity="0" result="BackgroundImageFix"/>
<feColorMatrix in="SourceAlpha" type="matrix" values="0 0 0 0 0 0 0 0 0 0 0 0 0 0 0 0 0 0 127 0" result="hardAlpha"/>
<feOffset dx="8" dy="4"/>
<feGaussianBlur stdDeviation="6"/>
<feComposite in2="hardAlpha" operator="out"/>
<feColorMatrix type="matrix" values="0 0 0 0 0 0 0 0 0 0 0 0 0 0 0 0 0 0 0.721569 0"/>
<feBlend mode="normal" in2="BackgroundImageFix" result="effect1_dropShadow_5_27686"/>
<feBlend mode="normal" in="SourceGraphic" in2="effect1_dropShadow_5_27686" result="shape"/>
</filter>
</defs>
</svg>
